<svg version="1.2" xmlns="http://www.w3.org/2000/svg" viewBox="0 0 1200 689" width="1200" height="689">
	<title>8990659-ai</title>
	<defs>
		<linearGradient id="g1" x2="1" gradientUnits="userSpaceOnUse" gradientTransform="matrix(-921.312,0,0,-501.555,1094.935,254.016)">
			<stop offset="0" stop-color="#0385ff"/>
			<stop offset="1" stop-color="#026acc"/>
		</linearGradient>
		<linearGradient id="g2" x2="1" gradientUnits="userSpaceOnUse" gradientTransform="matrix(-921.309,0,0,-147.922,1094.935,511.902)">
			<stop offset="0" stop-color="#0385ff"/>
			<stop offset="1" stop-color="#026acc"/>
		</linearGradient>
		<linearGradient id="g3" x2="1" gradientUnits="userSpaceOnUse" gradientTransform="matrix(969.019,-36.194,30.469,815.726,137.564,255.199)">
			<stop offset="0" stop-color="#022482"/>
			<stop offset="1" stop-color="#014f99"/>
		</linearGradient>
		<linearGradient id="g4" x2="1" gradientUnits="userSpaceOnUse" gradientTransform="matrix(-921.312,0,0,-128.377,1094.937,517.327)">
			<stop offset="0" stop-color="#0385ff"/>
			<stop offset="1" stop-color="#026acc"/>
		</linearGradient>
		<linearGradient id="g5" x2="1" gradientUnits="userSpaceOnUse" gradientTransform="matrix(193.608,0,0,186.695,294.033,28.573)">
			<stop offset="0" stop-color="#022482"/>
			<stop offset="1" stop-color="#014f99"/>
		</linearGradient>
		<linearGradient id="g6" x2="1" gradientUnits="userSpaceOnUse" gradientTransform="matrix(828.302,0,0,384.119,105.93,81.498)">
			<stop offset="0" stop-color="#022482"/>
			<stop offset="1" stop-color="#014f99"/>
		</linearGradient>
	</defs>
	<style>
		tspan { white-space:pre } 
		.s0 { fill: url(#g1) } 
		.s1 { fill: url(#g2) } 
		.s2 { fill: url(#g3) } 
		.s3 { fill: url(#g4) } 
		.s4 { fill: url(#g5) } 
		.s5 { fill: url(#g6) } 
		.t6 { font-size: 47px;text-transform: uppercase;fill: #fafafa;font-weight: 400;font-family: "FugazOne-Regular", "Fugaz One" } 
	</style>
	<g id="BACKGROUND">
	</g>
	<g id="OBJECTS">
		<g id="&lt;Group&gt;">
			<path id="&lt;Path&gt;" class="s0" d="m752.1 69.3c-8.6-11.3-16.9-21.2-25-29.5-77.2 22-168.4 54-257.3 97.9 81.9-49 166.4-87 238.8-114.7-58.4-45.7-112.1-17.3-205.9 39.4-73.9 44.7-157.9 128-216.6 191.6 148.3-100.6 335-156.9 466-184.7z"/>
			<g id="&lt;Group&gt;">
				<path id="&lt;Path&gt;" class="s1" d="m1012.6 370.7c-3.3 37-29.6 72.8-89.2 76.9-101.6 7.1-244.5-37.1-327.4-47.5-273.3-34.2-387 14.7-463 86.8 0 0 119.3-78.2 360.7-36 87.5 15.2 161.7 36.6 226.2 55.3q0 0 0 0c148.3 24.7 288-33 292.7-135.5z"/>
				<path id="&lt;Path&gt;" class="s2" d="m995.3 531.1c142.4-63.8 107.6-278.9-12-297.6-118.2-18.5-133.8 102.4-133.8 102.4 0 0 21.2-35.2 53.3-50.4 29.4-13.9 68.6-9.6 93.7 24.4 12 16.4 18.1 38.8 16.1 60.8-4.7 102.5-144.4 160.2-292.7 135.5q0 0 0 0c115.6 33.6 200.2 58.6 275.4 24.9z"/>
			</g>
			<path id="&lt;Path&gt;" class="s3" d="m218.9 517.3c0 0 83.6-135.7 433 0 0 0-239.8-63.9-433 0z"/>
			<path id="&lt;Path&gt;" class="s4" d="m487.6 45.9c-50.6-35.5-97.4-19.3-136.7 74.6l-35.4-53.6-21.5 33.9c0 0 24.4 53.7 15.1 114.5 0 0 47.3-64.5 116-121.7 44.1-36.9 62.5-47.7 62.5-47.7z"/>
			<path id="&lt;Compound Path&gt;" fill-rule="evenodd" class="s5" d="m766.6 415.4c0 0-461-126.8-660.7 50.2 0 0 7-44.5 15.5-55.7 209.3-275.3 726.2-331.4 798.1-328.3 71.9 3.1-141 116.9-152.9 333.8zm-487.8-103.9c-1.1-4.7-6.1-7.5-11-6.3-5 1.3-8.1 6.1-6.8 10.8 1.2 4.7 6.2 7.4 11.1 6.2 4.8-1.2 7.9-6 6.7-10.7zm61.6-33.4c-1-5.8-6.7-9.6-12.8-8.5-6.1 1.1-10.2 6.7-9.1 12.5 1.1 5.7 6.9 9.4 12.9 8.3 5.9-1.1 10-6.5 9-12.3zm63.7-29.1c-0.6-6.8-6.9-11.8-14.2-11-7.2 0.8-12.5 7.1-11.6 13.9 0.8 6.8 7.2 11.6 14.3 10.8 7-0.8 12.2-6.9 11.5-13.7zm65.7-24.7c-0.2-7.9-7-14-15.4-13.6-8.4 0.3-14.9 7.2-14.5 15 0.5 7.9 7.5 13.8 15.6 13.4 8.1-0.4 14.5-7 14.3-14.8zm67.3-20.2c0.5-8.9-6.7-16.3-16.2-16.5-9.5-0.2-17.4 7-17.5 15.9-0.2 8.9 7.3 16 16.4 16.2 9.2 0.1 16.9-6.8 17.3-15.6zm52-35.2c-10.5-0.9-19.9 6.6-20.8 16.4-0.8 9.9 6.9 18.4 17.1 19.2 10.2 0.9 19.3-6.2 20.5-16 1.2-9.8-6.2-18.7-16.8-19.6zm69.8-14.1c-11.6-1.7-22.6 5.8-24.3 16.6-1.6 10.8 6.3 20.6 17.4 22.3 11.2 1.7 21.7-5.5 23.9-16.1 2.1-10.7-5.4-21-17-22.8z"/>
		</g>
	</g>
	<g id="TEXTS">
		<g id="&lt;Group&gt;">
			<g id="&lt;Group&gt;">
				<text id="cruzaujourdhui" style="transform: matrix(2.642,-0.021,.038,2.417,600,655.357)" >
					<tspan x="-209.4" y="0" class="t6">CRUZAUJOURDHUI</tspan><tspan  y="0" class="t6">
</tspan>
				</text>
			</g>
		</g>
	</g>
</svg>